<svg width="720" height="190" viewBox="0 0 720 190" fill="none" xmlns="http://www.w3.org/2000/svg" role="img" aria-labelledby="title desc">
  <title id="title">FlexaPanel logo</title>
  <desc id="desc">FlexaPanel connected link logo and wordmark</desc>
  <rect width="720" height="190" rx="36" fill="transparent"/>
  <g transform="translate(22 22)">
    <path d="M4 93c11-32 31-44 57-29l31 18c18 11 36 3 50-25" stroke="#0b1115" stroke-width="22" stroke-linecap="round"/>
    <path d="M4 93c11-32 31-44 57-29l31 18c18 11 36 3 50-25" stroke="#111827" stroke-width="15" stroke-linecap="round"/>
    <path d="M14 112c25 16 50 5 71-29l18-28c13-20 31-29 53-17" stroke="#4f63b6" stroke-width="22" stroke-linecap="round"/>
    <path d="M14 112c25 16 50 5 71-29l18-28c13-20 31-29 53-17" stroke="#5b6fd6" stroke-width="15" stroke-linecap="round"/>
    <path d="M27 84c7-14 18-20 34-11l31 18c28 17 51 2 69-34" stroke="white" stroke-opacity="0.16" stroke-width="4" stroke-linecap="round"/>
  </g>
  <text x="230" y="123" fill="#0b1115" font-family="Arial, Helvetica, sans-serif" font-size="70" font-style="italic" font-weight="800" letter-spacing="-3">FlexaPanel</text>
</svg>