<?xml version="1.0" encoding="UTF-8"?>
<svg id="Layer_1" data-name="Layer 1" xmlns="http://www.w3.org/2000/svg" viewBox="0 0 500 500">
  <defs>
    <style>
      .cls-1 {
        fill: #fff;
      }

      .cls-2 {
        fill: #003dff;
      }
    </style>
  </defs>
  <circle class="cls-1" cx="250" cy="250" r="250"/>
  <g>
    <path d="m39.26,285.93c-.29-.78.05-5.22.59-7.37.2-.83.54-.98,1.9-.83,6.1.73,9.13-3.91,13.72-20.8,3.91-14.55,7.08-24.66,8.79-28.32,4.3-8.94,13.53-13.82,22.07-11.62,8.11,2.05,11.13,4.88,21.53,20.21,3.81,5.57,9.67,10.6,14.36,12.3.73.24,1.32.83,1.32,1.22,0,1.03-4.3,5.62-5.22,5.62-.44,0-2.2-.68-4-1.51-4.49-2.15-11.18-8.98-16.6-17.04-4.69-6.98-5.81-8.3-8.79-10.35-6.74-4.69-12.3-3.08-16.5,4.74-1.12,2.15-2.1,4.05-2.1,4.3,0,.2,3.76.34,8.35.34h8.35l1.42,1.42c1.51,1.51,1.76,2.69.88,4.59-.93,2.05-2.34,2.29-12.16,2.29-8.54,0-9.28.05-9.72.93-.29.49-1.71,5.52-3.17,11.08-4.3,16.36-5.13,18.26-10.16,23.49-3.91,4-6.64,5.42-11.38,5.86-2.69.24-3.17.15-3.47-.54h0Z"/>
    <path d="m437.01,277.05c0-1.51,5.66-28.32,6.4-30.27,1.17-3.08,4.25-6.05,7.18-6.93,2.83-.88,16.31-.78,18.41.1,2.25.98,3.66,3.37,3.66,6.3s-.83,8.59-1.86,12.3c-.93,3.47-3.86,6.74-6.74,7.52-1.07.29-5.47.54-9.77.54h-7.86l-.63,3.08c-.29,1.66-.78,4.05-1.07,5.37l-.49,2.29h-3.61c-2,0-3.61-.15-3.61-.29h-.01Zm25.15-17.92c1.37-1.37,1.71-2.2,2.44-6.45.78-4.25.78-4.98.2-6.05-.68-1.22-.88-1.27-6.45-1.42-5.71-.15-5.76-.15-7.13,1.22-1.17,1.22-1.46,2.1-2.2,6.98-.49,3.08-.98,6.01-1.07,6.49-.24.78.29.83,6.15.83h6.45l1.61-1.61h0Z"/>
    <path d="m182.62,266.26c0-.44,5.22-27.05,5.91-30.03.68-3.08,3.56-6.25,6.88-7.71,2.44-1.07,3.17-1.12,14.31-1.17l11.72-.05-.15,1.46c-.1.83-.39,2.29-.63,3.32l-.49,1.81h-10.01c-11.13,0-12.21.24-13.53,3.03-.39.88-.98,2.78-1.22,4.2l-.44,2.54h21.43l-.34,2.78c-.2,1.51-.44,3.03-.59,3.42-.2.49-2.49.63-11.13.63h-10.94l-.49,2.59c-.29,1.37-1.03,4.98-1.61,7.91l-1.12,5.37-3.76.15c-2.1.1-3.81-.05-3.81-.24h0Z"/>
    <path d="m218.75,266.01c0-.98,4.74-25.68,6.25-32.52l1.32-6.01,2.98-.2c1.66-.05,3.27,0,3.56.2.59.39-.44,6.25-4.98,28.61l-2.05,10.25-3.52.15c-2.69.1-3.56,0-3.56-.49h0Z"/>
    <path d="m237.55,266.26c-1.61-.44-3.71-2.15-4.2-3.52-1.22-3.08.05-13.77,2.05-17.72,1.07-2.1,3.56-4.15,6.15-5.08,2.69-.93,17.63-.93,19.92,0,2.69,1.12,3.32,2.64,3.08,7.03-.15,2.2-.59,4.44-1.07,5.37-1.42,2.69-2.93,3.03-13.72,3.03h-9.52v1.9c0,3.22.73,3.47,11.13,3.47h8.98l-.34,2.25c-.59,3.91.29,3.61-11.18,3.56-5.66-.05-10.74-.2-11.28-.29h0Zm18.8-16.75c1.17-1.17,1.27-2.78.15-4-.68-.73-1.56-.88-5.81-.88-2.88,0-5.57.24-6.3.59-1.42.63-2.69,2.69-2.69,4.3,0,.93.29.98,6.84.98,6.2,0,6.93-.1,7.81-.98h0Z"/>
    <path d="m263.18,266.16c0-.2,3.08-3.42,6.84-7.08l6.88-6.64-1.56-2.34c-.88-1.27-2.88-4.05-4.44-6.25-1.56-2.15-2.83-4.1-2.83-4.25,0-.2,1.9-.34,4.3-.34h4.25l2.83,4.44,2.83,4.39,4.79-4.44,4.83-4.44,4.25.15,4.3.15-7.13,6.54-7.08,6.54,4.59,6.88,4.59,6.88-3.76.15c-2.05.1-4,.05-4.35-.1-.34-.15-1.95-2.25-3.61-4.69l-2.98-4.44-4.88,4.64-4.88,4.69h-3.86c-2.15,0-3.91-.2-3.91-.44h0Z"/>
    <path d="m300.88,265.87c-5.18-2.25-2.73-13.72,3.27-15.38.98-.24,5.42-.49,9.86-.49h8.15l.29-1.27c.44-1.76-.73-3.42-2.69-3.81-.83-.15-5.03-.29-9.28-.29s-7.76-.1-7.76-.24c0-.1.24-1.32.54-2.69l.54-2.44h10.06c9.03,0,10.25.1,12.06.98,3.86,1.86,4.39,4.69,2.69,13.33-1.81,8.84-3.03,11.18-6.49,12.5-2.15.83-19.24.68-21.24-.2h0Zm17.38-4.93c1.32-.39,2.54-2.54,2.54-4.59v-1.46h-6.54c-7.28,0-8.35.39-8.89,3.22-.49,2.64.54,3.13,6.54,3.13,2.88,0,5.71-.15,6.35-.29h0Z"/>
    <path d="m331.05,266.26c.05-.2.29-1.71.63-3.32l.63-2.93,11.87-.24,11.87-.24,1.12-1.32c1.66-1.95,2.05-5.03.88-6.69-.98-1.27-1.07-1.27-8.74-1.51-6.79-.24-8.01-.39-9.81-1.37-3.03-1.56-3.76-3.32-3.42-8.2.29-4.79,1.9-8.79,4.15-10.4,3.13-2.2,5.03-2.49,17.58-2.78,6.49-.1,12.06-.1,12.26.05.39.2.24,1.42-.68,5.47q-.24,1.12-11.04,1.12c-6.45,0-11.13.2-11.72.49-2.2,1.22-3.32,6.93-1.61,8.35.59.49,3.08.73,8.94.93,9.03.29,10.25.63,12.11,3.37,1.42,2.1,1.46,4.93.15,10.06-1.12,4.39-2.64,6.64-5.52,8.2-1.95,1.03-2.64,1.07-15.82,1.22-7.62.1-13.82,0-13.82-.24v-.02Z"/>
    <path d="m369.63,266.01c0-.34,1.66-9.13,3.76-19.53l3.71-18.95h3.61c1.95,0,3.56.2,3.56.49,0,.24-.44,2.73-.98,5.47-.54,2.78-.98,5.18-.98,5.37,0,.2,3.52.39,7.76.49,6.98.15,7.96.24,9.13,1.17,2.49,1.86,3.32,3.42,3.27,6.2-.05,2.34-2.05,13.92-3.13,18.07l-.49,1.81h-7.22l.2-1.32c.15-.78.83-4.39,1.46-8.06,2.2-12.01,2.1-12.11-6.25-12.11-4.98,0-5.66.1-5.91.88-.1.44-1.03,4.88-2,9.86-.98,4.98-1.9,9.42-2,9.91-.24.68-.83.83-3.91.83-2.54,0-3.61-.2-3.61-.59h.02Z"/>
    <path d="m410.21,266.26c-3.03-.63-4.93-3.13-4.93-6.45,0-3.13,2.25-13.04,3.47-15.19,1.22-2.15,3.81-4.15,6.35-4.88.93-.29,5.18-.49,9.47-.49,9.28,0,11.18.59,12.7,3.71.88,1.81.88,2.15.1,7.52-1.07,7.32-2,10.35-3.86,12.5-2.78,3.13-3.56,3.32-13.33,3.42-4.83.05-9.33,0-9.96-.15h-.01Zm15.82-6.1c1.66-.73,2.49-2.44,3.42-6.74,1.61-7.71,1.17-8.3-6.4-8.3-7.13,0-7.67.39-8.98,6.35-1.95,8.5-1.46,9.28,5.96,9.28,2.64,0,5.32-.24,6.01-.59h-.01Z"/>
  </g>
  <g>
    <path class="cls-2" d="m95.21,277.93c-6.1-1.61-8.79-3.91-19.53-16.89-3.08-3.76-5.81-7.03-6.05-7.37-.54-.73-.05-2.88.98-3.86.93-.98,4.2-1.03,5.96-.1s5.47,4.88,9.77,10.4c5.57,7.03,8.4,9.08,13.87,9.96,6.2,1.03,12.79-2.05,19.73-9.08,5.42-5.57,9.23-11.08,14.36-20.75,2.15-4.15,4.2-7.81,4.49-8.15.29-.34,1.51-.63,2.83-.63,2.83,0,3.91,1.03,3.91,3.71,0,4.49-10.69,22.71-17.92,30.52-3.47,3.71-9.33,8.4-12.45,10.01-5.81,2.98-13.77,3.86-19.92,2.25l-.03-.02Z"/>
    <path class="cls-2" d="m150.98,249.41c-.83-.83-.73-3.42.15-4.59.39-.49.73-1.56.73-2.29,0-.78.44-2,.93-2.73,2.98-4.15,4.15-11.62,2.34-14.99-2.44-4.64-8.45-5.96-14.11-3.08-3.22,1.66-8.54,7.37-12.99,13.96-4.3,6.4-5.42,7.47-7.57,7.47s-3.13-.78-3.76-2.64c-.68-2.15-.15-3.52,3.66-9.08,6.4-9.38,11.72-14.84,17.19-17.63,2.88-1.46,3.61-1.61,8.64-1.81,5.22-.2,5.71-.15,8.5,1.12,3.66,1.61,6.98,4.98,8.79,8.94,1.17,2.44,1.32,3.37,1.27,7.67-.05,7.28-2.25,12.45-7.71,18.02-1.71,1.81-2.49,2.25-3.81,2.25-.93,0-1.9-.24-2.25-.59h0Z"/>
  </g>
  <g>
    <path class="cls-2" d="m37.7,285.89c-7.81-2.44-11.62-9.96-9.67-19.19,2.1-10.01,10.55-19.53,21.39-23.97,6.98-2.88,6.84-2.98,5.32,2.59l-1.27,4.54-2.93,1.51c-4.39,2.29-8.15,5.52-10.4,8.84-5.22,7.86-5.37,15.48-.34,17.14,1.76.59,1.81.68,1.51,2.39-.15.98-.44,2.93-.59,4.35-.2,1.37-.49,2.54-.63,2.49-.15,0-1.22-.29-2.39-.68h0Z"/>
    <path class="cls-2" d="m141.6,252.83c2.59-4.98,3.17-5.76,6.05-7.96,1.81-1.37,3.71-3.17,4.35-4.05.59-.83,1.22-1.56,1.37-1.56.59,0,.88,2.15.44,2.69-.24.29-.39,1.27-.24,2.1.1.88,0,1.56-.24,1.56s-.68.44-.93.93c-.39.68-.34,1.07.2,1.51.54.44.98.29,2.1-.88.73-.78,1.71-1.42,2.1-1.42.34,0,1.12-.2,1.61-.44,2.83-1.12-4.49,6.15-8.45,8.5-2.39,1.42-9.67,4.49-10.64,4.49-.34,0,.68-2.49,2.29-5.47h-.01Z"/>
  </g>
</svg>